HIERARCHY
ROOT Hips
{
	OFFSET 0.00000 0.00000 0.00000
	CHANNELS 6 Xposition Yposition Zposition Zrotation Yrotation Xrotation 
	JOINT LHipJoint
	{
		OFFSET 0 0 0
		CHANNELS 3 Zrotation Yrotation Xrotation
		JOINT LeftUpLeg
		{
			OFFSET 1.84395 -1.68683 0.74144
			CHANNELS 3 Zrotation Yrotation Xrotation
			JOINT LeftLeg
			{
				OFFSET 2.27037 -6.23779 0.00000
				CHANNELS 3 Zrotation Yrotation Xrotation
				JOINT LeftFoot
				{
					OFFSET 2.56918 -7.05877 0.00000
					CHANNELS 3 Zrotation Yrotation Xrotation
					JOINT LeftToeBase
					{
						OFFSET 0.22276 -0.61202 1.71784
						CHANNELS 3 Zrotation Yrotation Xrotation
						End Site
						{
							OFFSET 0.00000 -0.00000 0.91613
						}
					}
				}
			}
		}
	}
	JOINT RHipJoint
	{
		OFFSET 0 0 0
		CHANNELS 3 Zrotation Yrotation Xrotation
		JOINT RightUpLeg
		{
			OFFSET -1.76833 -1.68684 0.74144
			CHANNELS 3 Zrotation Yrotation Xrotation
			JOINT RightLeg
			{
				OFFSET -2.49360 -6.85110 0.00000
				CHANNELS 3 Zrotation Yrotation Xrotation
				JOINT RightFoot
				{
					OFFSET -2.55538 -7.02085 0.00000
					CHANNELS 3 Zrotation Yrotation Xrotation
					JOINT RightToeBase
					{
						OFFSET -0.21516 -0.59115 1.68050
						CHANNELS 3 Zrotation Yrotation Xrotation
						End Site
						{
							OFFSET -0.00000 -0.00000 0.89604
						}
					}
				}
			}
		}
	}
	JOINT LowerBack
	{
		OFFSET 0 0 0
		CHANNELS 3 Zrotation Yrotation Xrotation
		JOINT Spine
		{
			OFFSET 0.06382 1.72312 -0.19613
			CHANNELS 3 Zrotation Yrotation Xrotation
			JOINT Spine1
			{
				OFFSET -0.00055 1.73507 0.23859
				CHANNELS 3 Zrotation Yrotation Xrotation
				JOINT Neck
				{
					OFFSET 0 0 0
					CHANNELS 3 Zrotation Yrotation Xrotation
					JOINT Neck1
					{
						OFFSET 0.03638 1.65562 0.09633
						CHANNELS 3 Zrotation Yrotation Xrotation
						JOINT Head
						{
							OFFSET 0.06388 1.62807 -0.32386
							CHANNELS 3 Zrotation Yrotation Xrotation
							End Site
							{
								OFFSET 0.00995 1.67644 -0.12021
							}
						}
					}
				}
				JOINT LeftShoulder
				{
					OFFSET 0 0 0
					CHANNELS 3 Zrotation Yrotation Xrotation
					JOINT LeftArm
					{
						OFFSET 3.09648 1.42991 0.28122
						CHANNELS 3 Zrotation Yrotation Xrotation
						JOINT LeftForeArm
						{
							OFFSET 5.11878 -0.00000 -0.00000
							CHANNELS 3 Zrotation Yrotation Xrotation
							JOINT LeftHand
							{
								OFFSET 3.59971 -0.00000 0.00000
								CHANNELS 3 Zrotation Yrotation Xrotation
								JOINT LeftFingerBase
								{
									OFFSET 0 0 0
									CHANNELS 3 Zrotation Yrotation Xrotation
									JOINT LeftHandIndex1
									{
										OFFSET 0.62877 -0.00000 0.00000
										CHANNELS 3 Zrotation Yrotation Xrotation
										End Site
										{
											OFFSET 0.50693 -0.00000 0.00000
										}
									}
								}
								JOINT LThumb
								{
									OFFSET 0 0 0
									CHANNELS 3 Zrotation Yrotation Xrotation
									End Site
									{
										OFFSET 0.51467 -0.00000 0.51467
									}
								}
							}
						}
					}
				}
				JOINT RightShoulder
				{
					OFFSET 0 0 0
					CHANNELS 3 Zrotation Yrotation Xrotation
					JOINT RightArm
					{
						OFFSET -3.33565 1.14597 0.05047
						CHANNELS 3 Zrotation Yrotation Xrotation
						JOINT RightForeArm
						{
							OFFSET -5.49020 -0.00000 0.00000
							CHANNELS 3 Zrotation Yrotation Xrotation
							JOINT RightHand
							{
								OFFSET -3.20659 -0.00000 -0.00000
								CHANNELS 3 Zrotation Yrotation Xrotation
								JOINT RightFingerBase
								{
									OFFSET 0 0 0
									CHANNELS 3 Zrotation Yrotation Xrotation
									JOINT RightHandIndex1
									{
										OFFSET -0.69188 -0.00000 0.00000
										CHANNELS 3 Zrotation Yrotation Xrotation
										End Site
										{
											OFFSET -0.55781 -0.00000 0.00000
										}
									}
								}
								JOINT RThumb
								{
									OFFSET 0 0 0
									CHANNELS 3 Zrotation Yrotation Xrotation
									End Site
									{
										OFFSET -0.56633 -0.00000 0.56633
									}
								}
							}
						}
					}
				}
			}
		}
	}
}
MOTION
Frames: 15
Frame Time: .0083333
0.8000 17.4983 9.5564 -8.7342 -11.6136 10.9335 0.0000 0.0000 0.0000 -24.5866 -39.7156 30.1325 0.0614 -1.5985 -4.3973 1.5454 41.7437 -60.6278 1.8171 8.4742 24.1639 0.0000 0.0000 0.0000 24.7983 24.9301 4.2090 -0.0173 -0.8498 2.3357 0.1572 -13.6058 -17.3529 -0.0771 1.7911 -4.9288 7.9834 -0.4772 -1.3101 4.1356 0.0460 -11.2667 0.0425 -0.5292 -11.4318 10.0524 9.5821 -8.1202 -12.9105 12.9538 6.4394 -4.6253 6.0391 4.7726 0.0000 -0.0000 0.0000 -72.8294 -32.2230 -3.6924 122.3219 -55.6588 -87.5836 -0.0000 0.0000 -104.5800 30.8327 -4.0473 -2.4124 -7.1250 0.0000 -0.0000 3.1574 25.2683 -1.5097 0.0000 -0.0000 0.0000 103.9447 73.4424 119.6363 -107.4155 58.8224 -75.0226 0.0000 0.0000 26.5360 -20.6483 -40.1225 13.6497 7.1250 -0.0000 -0.0000 23.1274 -70.7651 -14.4641
0.8036 17.4970 9.5555 -8.7395 -11.6807 10.9535 0.0000 0.0000 0.0000 -24.7152 -39.8230 30.2721 0.0611 -1.5943 -4.3857 1.7138 41.6875 -60.9265 1.8558 8.5591 24.4256 0.0000 0.0000 0.0000 24.7894 24.9986 4.1972 -0.0177 -0.8581 2.3584 0.1588 -13.6073 -17.3331 -0.0787 1.8096 -4.9796 8.0993 -0.3622 -1.2988 3.9801 0.1916 -11.2071 -0.2053 -0.4758 -11.3610 10.1142 9.4720 -8.1041 -12.7989 12.7823 6.4246 -4.6196 5.9635 4.7413 0.0000 0.0000 0.0000 -72.9804 -32.4697 -3.3217 122.3973 -55.6365 -87.6458 -0.0000 0.0000 -104.6680 30.7843 -3.9424 -2.3455 -7.1250 0.0000 -0.0000 3.1275 25.3925 -1.4863 0.0000 0.0000 0.0000 108.4249 73.4661 123.5940 -107.3571 58.8305 -74.9726 0.0000 0.0000 25.7809 -19.8481 -40.4334 13.1763 7.1250 -0.0000 -0.0000 24.6143 -70.7695 -15.4313
0.8069 17.4955 9.5541 -8.7848 -11.6823 10.9783 0.0000 0.0000 0.0000 -24.7038 -39.8632 30.3119 0.0612 -1.5964 -4.3914 1.8147 41.6047 -61.0530 1.8831 8.6181 24.6079 0.0000 0.0000 0.0000 24.8323 25.0256 4.1983 -0.0174 -0.8513 2.3399 0.1658 -13.6448 -17.2969 -0.0840 1.8700 -5.1465 8.2668 -0.2544 -1.2455 3.8294 0.3376 -11.1730 -0.4739 -0.4285 -11.3460 10.1349 9.3311 -7.9994 -12.7551 12.5755 6.2823 -4.6375 5.8719 4.6547 0.0000 -0.0000 0.0000 -73.0428 -32.6321 -2.9748 122.4491 -55.6212 -87.6886 -0.0000 0.0000 -104.8300 30.9299 -3.7691 -2.2556 -7.1250 0.0000 -0.0000 3.2476 25.5869 -1.5289 0.0000 -0.0000 0.0000 112.1693 73.4103 126.8302 -107.5156 58.8084 -75.1083 0.0000 0.0000 24.7061 -19.1279 -41.0474 12.8306 7.1250 -0.0000 -0.0000 26.5238 -71.0533 -16.8434
0.8100 17.4958 9.5520 -8.8501 -11.6552 11.0124 0.0000 0.0000 0.0000 -24.5753 -39.8549 30.2429 0.0618 -1.6040 -4.4123 1.7875 41.6109 -61.0017 1.8742 8.5989 24.5486 0.0000 0.0000 0.0000 24.9058 25.1096 4.2013 -0.0177 -0.8579 2.3579 0.1672 -13.6920 -17.3531 -0.0786 1.8084 -4.9764 8.4323 -0.2319 -1.1914 3.7813 0.3787 -11.1686 -0.6198 -0.4279 -11.3750 9.9881 9.2248 -7.7058 -12.7205 12.4478 6.0968 -4.6324 5.8225 4.5231 -0.0000 -0.0000 0.0000 -73.0667 -32.6417 -2.8747 122.4726 -55.6142 -87.7080 -0.0000 0.0000 -104.8540 30.8082 -3.6849 -2.1948 -7.1250 0.0000 -0.0000 3.1610 25.6902 -1.4804 -0.0000 -0.0000 0.0000 116.0253 73.1025 130.2818 -107.6366 58.7914 -75.2117 0.0000 0.0000 24.0618 -18.7348 -41.5189 12.6704 7.1250 -0.0000 -0.0000 27.8310 -71.3159 -17.8700
0.8127 17.4976 9.5503 -8.8772 -11.6282 11.0279 0.0000 0.0000 0.0000 -24.4697 -39.8189 30.1431 0.0621 -1.6084 -4.4247 1.6872 41.6649 -60.8459 1.8413 8.5274 24.3277 0.0000 0.0000 0.0000 24.9426 25.2203 4.2372 -0.0179 -0.8636 2.3736 0.1625 -13.7391 -17.4921 -0.0575 1.5470 -4.2552 8.5620 -0.2159 -1.1524 3.7252 0.4051 -11.1392 -0.7546 -0.4299 -11.3652 9.6757 9.0865 -7.4702 -12.5374 12.2792 5.9722 -4.5565 5.7524 4.3949 0.0000 -0.0000 0.0000 -73.3094 -32.7412 -2.6675 122.5728 -55.5844 -87.7907 -0.0000 0.0000 -104.7140 30.6433 -3.6957 -2.1868 -7.1250 0.0000 -0.0000 3.0360 25.6851 -1.4220 0.0000 -0.0000 0.0000 119.5932 72.8122 133.4312 -107.5689 58.8010 -75.1539 0.0000 0.0000 23.9770 -18.7147 -41.8475 12.7354 7.1250 -0.0000 -0.0000 28.4600 -71.5811 -18.4554
0.8145 17.4986 9.5494 -8.8089 -11.5973 11.0196 0.0000 0.0000 0.0000 -24.5071 -39.8116 30.0720 0.0614 -1.5990 -4.3987 1.6190 41.6788 -60.7151 1.8258 8.4933 24.2228 0.0000 0.0000 0.0000 24.8605 25.2398 4.2565 -0.0174 -0.8516 2.3405 0.1684 -13.8104 -17.5264 -0.0542 1.5017 -4.1303 8.5861 -0.2119 -1.1388 3.6467 0.4033 -11.0877 -0.8547 -0.4350 -11.3128 9.2959 8.9223 -7.2531 -12.3428 12.0725 5.7889 -4.4699 5.6626 4.2440 -0.0000 0.0000 0.0000 -73.6521 -32.8519 -2.5050 122.7916 -55.5190 -87.9711 -0.0000 0.0000 -104.6180 30.6759 -3.6629 -2.1703 -7.1250 0.0000 -0.0000 3.0626 25.7217 -1.4319 -0.0000 0.0000 0.0000 122.7228 72.4572 136.0243 -107.4192 58.8219 -75.0258 0.0000 0.0000 23.8993 -18.5239 -42.0232 12.6421 7.1250 -0.0000 -0.0000 29.0169 -71.6600 -18.8835
0.8151 17.4980 9.5491 -8.7487 -11.5759 10.9979 0.0000 0.0000 0.0000 -24.6256 -39.8731 30.1249 0.0608 -1.5913 -4.3775 1.6471 41.6784 -60.7748 1.8339 8.5112 24.2778 0.0000 0.0000 0.0000 24.7825 25.1948 4.2441 -0.0171 -0.8447 2.3217 0.1791 -13.8571 -17.4563 -0.0724 1.7357 -4.7757 8.6095 -0.2105 -1.1316 3.5615 0.3966 -11.0343 -0.9614 -0.4427 -11.2545 9.0503 8.8119 -7.1012 -12.2479 11.9414 5.7205 -4.4226 5.6039 4.1628 0.0000 -0.0000 0.0000 -73.8571 -32.8430 -2.4901 123.1044 -55.4243 -88.2288 -0.0000 0.0000 -104.6490 30.6939 -3.6080 -2.1393 -7.1250 0.0000 -0.0000 3.0794 25.7845 -1.4353 0.0000 -0.0000 0.0000 125.2496 71.8997 137.8753 -107.2761 58.8417 -74.9033 0.0000 0.0000 23.4784 -17.9166 -42.0949 12.2289 7.1250 -0.0000 -0.0000 29.8648 -71.5103 -19.3688
0.8151 17.4972 9.5488 -8.7223 -11.5983 10.9598 0.0000 0.0000 0.0000 -24.8229 -39.9899 30.3295 0.0606 -1.5886 -4.3699 1.7892 41.6748 -61.0730 1.8612 8.5708 24.4617 0.0000 0.0000 0.0000 24.7484 25.1877 4.2481 -0.0175 -0.8542 2.3476 0.1784 -13.8390 -17.4370 -0.0845 1.8752 -5.1610 8.6671 -0.1857 -1.1001 3.4743 0.4249 -10.9682 -1.0921 -0.4361 -11.1942 9.0370 8.7354 -6.9275 -12.4397 11.8633 5.6607 -4.4946 5.5647 4.1195 -0.0000 0.0000 0.0000 -74.0520 -32.8378 -2.4380 123.3570 -55.3469 -88.4367 -0.0000 0.0000 -104.6730 30.6415 -3.6500 -2.1597 -7.1250 0.0000 -0.0000 3.0375 25.7382 -1.4189 -0.0000 0.0000 0.0000 127.2058 71.2606 139.1788 -107.2733 58.8421 -74.9009 0.0000 0.0000 22.3915 -17.0237 -42.5515 11.6982 7.1250 -0.0000 -0.0000 31.7786 -71.5702 -20.7234
0.8154 17.4966 9.5471 -8.7147 -11.6203 10.9277 0.0000 0.0000 0.0000 -24.9289 -40.0390 30.4418 0.0601 -1.5816 -4.3506 1.8722 41.6571 -61.2297 1.8799 8.6113 24.5869 0.0000 0.0000 0.0000 24.7307 25.1639 4.2366 -0.0180 -0.8668 2.3824 0.1717 -13.7796 -17.4328 -0.0835 1.8635 -5.1287 8.7291 -0.1759 -1.0790 3.3978 0.4317 -10.8852 -1.2124 -0.4385 -11.1100 9.0623 8.6804 -6.7374 -12.6751 11.8157 5.6000 -4.5839 5.5403 4.0815 -0.0000 0.0000 0.0000 -74.2215 -32.9566 -2.3818 123.3214 -55.3579 -88.4074 -0.0000 0.0000 -104.6530 30.5565 -3.7562 -2.2149 -7.1250 0.0000 -0.0000 2.9672 25.6190 -1.3943 -0.0000 0.0000 0.0000 128.9384 70.5334 140.2842 -107.3386 58.8330 -74.9568 0.0000 0.0000 20.3980 -15.8566 -43.2735 11.0179 7.1250 -0.0000 -0.0000 34.5505 -71.7294 -22.7701
0.8157 17.4955 9.5435 -8.7889 -11.6219 10.9019 0.0000 0.0000 0.0000 -24.8122 -39.9608 30.4128 0.0602 -1.5828 -4.3541 1.8281 41.6352 -61.1135 1.8783 8.6079 24.5763 0.0000 0.0000 0.0000 24.8044 25.0720 4.1972 -0.0186 -0.8806 2.4205 0.1641 -13.6769 -17.3712 -0.0810 1.8360 -5.0527 8.8721 -0.1684 -1.0482 3.3242 0.4404 -10.7967 -1.3740 -0.4471 -11.0277 8.9866 8.6502 -6.6718 -12.6620 11.8002 5.7500 -4.5702 5.5310 4.1086 -0.0000 0.0000 0.0000 -74.3744 -33.1388 -2.2837 123.1401 -55.4134 -88.2582 -0.0000 0.0000 -104.6350 30.5231 -3.7565 -2.2121 -7.1250 0.0000 -0.0000 2.9419 25.6201 -1.3823 -0.0000 0.0000 0.0000 130.1734 69.6998 140.8825 -107.2535 58.8448 -74.8840 0.0000 0.0000 17.8710 -14.9467 -43.7733 10.4634 7.1250 -0.0000 -0.0000 36.5988 -71.7899 -24.2691
0.8145 17.4941 9.5392 -8.8748 -11.6570 10.8701 0.0000 0.0000 0.0000 -24.6691 -39.8464 30.3810 0.0608 -1.5910 -4.3765 1.8570 41.5293 -61.0631 1.9041 8.6634 24.7480 0.0000 0.0000 0.0000 24.9125 25.0523 4.1890 -0.0194 -0.8994 2.4721 0.1589 -13.6085 -17.3341 -0.0805 1.8305 -5.0376 8.9968 -0.1066 -0.9765 3.2086 0.5257 -10.7380 -1.5761 -0.4212 -10.9965 8.9772 8.5716 -6.6053 -12.6989 11.7244 5.9684 -4.5870 5.4901 4.1566 0.0000 -0.0000 0.0000 -74.6036 -33.2446 -2.0054 123.0516 -55.4404 -88.1853 -0.0000 0.0000 -104.6530 30.4711 -3.7178 -2.1849 -7.1250 0.0000 -0.0000 2.9050 25.6671 -1.3617 0.0000 -0.0000 0.0000 130.3640 68.9013 140.4522 -107.0994 58.8659 -74.7521 0.0000 0.0000 15.5478 -14.5886 -44.0119 10.2504 7.1250 -0.0000 -0.0000 37.4987 -71.8411 -24.9538
0.8097 17.4925 9.5344 -8.8600 -11.6846 10.8544 0.0000 0.0000 0.0000 -24.5370 -39.7010 30.2267 0.0617 -1.6030 -4.4097 1.7643 41.5307 -60.8671 1.8937 8.6412 24.6791 0.0000 0.0000 0.0000 24.9266 25.1045 4.1890 -0.0202 -0.9165 2.5192 0.1563 -13.6062 -17.3656 -0.0814 1.8399 -5.0634 8.9171 -0.0753 -0.9353 3.1020 0.5591 -10.7195 -1.6511 -0.4030 -10.9928 9.0580 8.5036 -6.3902 -12.9040 11.6718 6.0915 -4.6750 5.4632 4.1698 -0.0000 0.0000 0.0000 -74.8466 -33.2061 -1.7874 123.0438 -55.4427 -88.1789 -0.0000 0.0000 -104.7060 30.4712 -3.7060 -2.1779 -7.1250 0.0000 -0.0000 2.9058 25.6809 -1.3611 -0.0000 0.0000 0.0000 129.9028 68.1605 139.4908 -107.0972 58.8662 -74.7502 0.0000 0.0000 14.0467 -14.4819 -44.1975 10.2071 7.1250 -0.0000 -0.0000 38.0199 -71.9392 -25.4066
0.8033 17.4913 9.5304 -8.8301 -11.6468 10.8564 0.0000 0.0000 0.0000 -24.3124 -39.5226 29.9538 0.0630 -1.6194 -4.4549 1.3774 41.7780 -60.3038 1.7863 8.4060 23.9542 0.0000 0.0000 0.0000 24.9218 25.0963 4.1664 -0.0207 -0.9282 2.5514 0.1454 -13.5687 -17.4537 -0.0701 1.7085 -4.7008 8.7436 -0.1062 -0.9649 3.0633 0.5004 -10.7009 -1.5937 -0.4160 -10.9536 9.1248 8.4831 -6.1023 -13.0721 11.6877 6.2176 -4.7462 5.4739 4.1759 -0.0000 0.0000 0.0000 -75.1318 -33.1269 -1.6748 123.0143 -55.4517 -88.1546 -0.0000 0.0000 -104.7150 30.5653 -3.6514 -2.1540 -7.1250 0.0000 -0.0000 2.9798 25.7399 -1.3918 -0.0000 0.0000 0.0000 129.0026 67.4321 138.2596 -107.2118 58.8505 -74.8483 0.0000 0.0000 13.7230 -14.5607 -44.3272 10.2873 7.1250 -0.0000 -0.0000 38.2260 -72.0607 -25.6519
0.7990 17.4904 9.5287 -8.8649 -11.5889 10.8558 0.0000 0.0000 0.0000 -24.0664 -39.3708 29.7337 0.0632 -1.6215 -4.4607 1.1065 41.8690 -59.8161 1.7106 8.2354 23.4313 0.0000 0.0000 0.0000 24.9601 24.9890 4.1383 -0.0204 -0.9228 2.5364 0.1316 -13.4757 -17.4953 -0.0492 1.4315 -3.9369 8.6404 -0.1176 -1.0211 3.0366 0.4685 -10.6632 -1.5648 -0.4200 -10.8753 9.2041 8.4631 -6.0388 -13.1592 11.7107 6.6294 -4.7815 5.4772 4.3018 0.0000 0.0000 0.0000 -75.4568 -33.0210 -1.4856 123.0780 -55.4323 -88.2071 -0.0000 0.0000 -104.7590 30.5251 -3.6314 -2.1388 -7.1250 0.0000 -0.0000 2.9506 25.7648 -1.3764 0.0000 0.0000 0.0000 127.4154 66.7906 136.4287 -107.3619 58.8298 -74.9768 0.0000 0.0000 14.4831 -14.7353 -44.3086 10.4100 7.1250 -0.0000 -0.0000 38.0001 -72.1086 -25.5255
0.7958 17.4895 9.5281 -8.9047 -11.5427 10.8530 0.0000 0.0000 0.0000 -24.0266 -39.3910 29.7578 0.0627 -1.6152 -4.4434 1.1200 41.8275 -59.7988 1.7165 8.2488 23.4724 0.0000 0.0000 0.0000 24.9923 24.8336 4.1240 -0.0193 -0.8966 2.4645 0.1282 -13.4018 -17.4257 -0.0398 1.2870 -3.5388 8.5394 -0.1086 -1.0830 2.9776 0.4615 -10.6325 -1.5741 -0.4142 -10.7992 9.2661 8.4358 -6.1914 -13.1354 11.7230 7.2658 -4.7702 5.4663 4.5227 0.0000 -0.0000 0.0000 -75.7086 -32.8623 -1.2635 123.2161 -55.3902 -88.3208 -0.0000 0.0000 -104.9510 30.4762 -3.6795 -2.1628 -7.1250 0.0000 -0.0000 2.9110 25.7113 -1.3616 0.0000 -0.0000 0.0000 125.0721 66.3044 134.0216 -107.7254 58.7789 -75.2877 0.0000 0.0000 15.6216 -14.9549 -44.3055 10.5681 7.1250 -0.0000 -0.0000 37.7605 -72.1835 -25.4100
